<?xml version="1.0" standalone="no"?>
<!DOCTYPE svg PUBLIC "-//W3C//DTD SVG 20010904//EN"
 "http://www.w3.org/TR/2001/REC-SVG-20010904/DTD/svg10.dtd">
<svg version="1.0" xmlns="http://www.w3.org/2000/svg"
 width="1024.000000pt" height="1024.000000pt" viewBox="0 0 1024.000000 1024.000000"
 preserveAspectRatio="xMidYMid meet">
<metadata>
Created by potrace 1.11, written by Peter Selinger 2001-2013
</metadata>
<g transform="translate(0.000000,1024.000000) scale(0.100000,-0.100000)"
fill="#000000" stroke="none">
<path d="M0 5120 l0 -5120 5120 0 5120 0 0 5120 0 5120 -5120 0 -5120 0 0
-5120z m6487 3173 c111 -40 181 -84 275 -172 137 -128 223 -275 276 -469 23
-86 26 -116 26 -267 1 -155 -2 -179 -27 -268 -53 -192 -129 -321 -268 -451
-94 -88 -198 -145 -328 -177 -116 -29 -273 -23 -378 14 -152 54 -275 140 -378
264 -73 89 -159 262 -192 388 -23 88 -27 120 -27 260 0 190 19 282 90 434 75
160 170 273 310 367 129 87 230 115 409 110 115 -3 140 -7 212 -33z m-2845 16
c29 -6 96 -31 148 -57 72 -35 113 -64 173 -121 l77 -74 89 86 c49 48 91 87 95
87 13 0 106 -99 106 -112 0 -7 -43 -56 -96 -109 l-96 -96 37 -99 c97 -257 86
-522 -31 -767 l-18 -38 102 -102 c56 -56 102 -109 102 -117 0 -19 -90 -110
-109 -110 -9 0 -57 41 -108 92 l-92 91 -51 -46 c-71 -64 -151 -111 -245 -143
-69 -24 -96 -28 -195 -28 -95 -1 -127 3 -185 23 -84 28 -162 69 -234 124 l-53
41 -62 -64 c-35 -36 -73 -74 -85 -84 l-22 -20 -54 54 c-30 30 -55 59 -55 64 0
6 38 49 85 96 l86 86 -36 59 c-40 67 -68 136 -98 245 -16 60 -20 105 -21 225
0 171 18 259 81 397 l36 78 -67 69 c-36 38 -66 75 -66 81 0 17 93 110 109 110
7 0 41 -27 75 -60 l63 -60 23 25 c60 64 208 147 305 171 63 16 218 17 287 3z
m765 -2164 c50 -154 168 -518 263 -810 94 -291 188 -579 207 -638 20 -60 39
-105 43 -100 4 4 128 279 275 611 180 405 275 608 289 617 20 13 303 96 1255
370 354 102 406 114 419 101 8 -8 110 -310 227 -673 117 -362 282 -874 368
-1138 85 -264 237 -734 337 -1045 100 -311 215 -668 256 -794 41 -126 73 -235
70 -242 -8 -22 30 -21 -2206 -64 -569 -11 -1211 -24 -1426 -30 -215 -5 -495
-10 -622 -10 l-232 0 0 26 c0 14 15 55 34 92 27 52 247 551 274 621 4 12 -66
13 -469 7 -442 -6 -685 -11 -1759 -36 -229 -5 -426 -7 -438 -3 -12 3 -22 11
-22 18 0 7 20 55 44 107 24 51 57 125 74 163 16 39 56 129 87 200 31 72 73
166 92 210 19 44 43 98 53 120 44 98 102 230 155 350 64 145 260 588 457 1035
254 573 357 802 363 808 3 3 94 31 203 62 700 203 1150 333 1172 341 61 19 58
25 157 -276z"/>
</g>
</svg>
